<?xml version="1.0" standalone="no"?><!DOCTYPE svg PUBLIC "-//W3C//DTD SVG 1.1//EN" "http://www.w3.org/Graphics/SVG/1.1/DTD/svg11.dtd"><svg t="1745489407921" class="icon" viewBox="0 0 1448 1024" version="1.1" xmlns="http://www.w3.org/2000/svg" p-id="9162" xmlns:xlink="http://www.w3.org/1999/xlink" width="282.8125" height="200"><path d="M1292.062035 408.134391a25.816745 25.816745 0 0 0-17.1177-10.312593l-69.3653-10.140572-12.643462-69.599248c-2.599221-14.334417-16.216315-23.798952-30.325386-21.170488l-253.992528 47.367397-197.571724-28.8873c-14.257008-2.022954-27.437172 7.928397-29.501411 22.388389l-7.137106 50.152399-109.695363 20.478968c-6.813708 1.267787-12.827523 5.229405-16.758178 10.976589-3.911732 5.747185-5.403145 12.856767-4.15428 19.753044l78.723182 433.183927c1.254025 6.865314 5.162317 12.978901 10.844134 16.937078a25.792662 25.792662 0 0 0 14.779949 4.661739c1.586023 0 3.160005-0.149657 4.723666-0.452412l349.413681-65.155974 207.013896 30.277221c1.276388 0.151378 2.537293 0.276952 3.748313 0.276952 12.741513 0 23.893563-9.497218 25.76514-22.629217l7.6136-53.444859 4.343502-0.817095c14.153797-2.630184 23.497917-16.393495 20.893536-30.729633l-11.637146-64.006881 36.972235-259.531568c0.978793-6.935842-0.786131-13.980056-4.93525-19.575863z m-61.546997 116.727536l-23.281172 163.401693-7.028732 49.486682-7.852708 55.108292-1.400242 9.710523-28.371241-4.142239-161.313371-23.565005-322.606102-47.152372 41.976294-294.711356 7.840666-55.142695 0.911706-6.443866 18.915307 2.757479 161.313372 23.561565L1161.134256 434.50848l54.425373 7.924956 26.141863 3.839484-11.186454 78.589007z m-84.085042-171.295686l4.740868 26.164225-81.253595-11.890014 76.512727-14.274211z m-546.674049 101.96479l66.800484-12.461121-30.340869 213.039753-36.459615-200.578632z m69.294772 381.280365l-10.660073-58.741352 182.576751 26.682005-171.916678 32.059347z m168.168364-280.457788c27.371805 3.990861 52.734417-15.253004 56.694316-42.956806 3.940976-27.710684-15.022497-53.417336-42.404623-57.411639-27.356323-4.021825-52.734417 15.213439-56.680554 42.922403-3.973659 27.734767 15.039699 53.420777 42.390861 57.446042z m293.09953 35.356969l-47.501572 49.882327-59.856041-119.574466-113.785997 132.395109s-149.567854-60.977611-190.70469 44.771616l386.078 56.407042 57.07792 8.318882-3.313103-18.361403-27.994517-153.839107zM654.415267 807.44072l-258.556216-4.871603c-110.104771 0-213.727832-121.678269-213.727832-233.209085 0-111.513614 79.643489-215.793791 189.746539-215.793791l44.70797 0.123854c32.523801-116.589921 148.800645-205.687623 276.401559-205.687622 118.903588 0 239.253864 87.656175 277.941137 194.064238 0.110093 0.299315 79.841312-9.146298 79.841311-9.146297C1002.583524 178.011343 861.647628 65.629028 692.989007 65.629028c-145.119419 0-270.226045 83.63263-332.782798 205.298858-150.126918 15.208278-267.733477 144.457143-267.733477 301.604193 0 167.26354 135.126784 304.134606 300.258998 304.134606h281.398736l-19.715199-69.225965z" fill="#409EFF" p-id="9163"></path></svg>